<?xml version="1.0" encoding="utf-8"?>
<!-- Generator: Adobe Illustrator 28.3.0, SVG Export Plug-In . SVG Version: 6.00 Build 0)  -->
<svg version="1.1" id="Art_3.0" xmlns="http://www.w3.org/2000/svg" xmlns:xlink="http://www.w3.org/1999/xlink" x="0px" y="0px"
	 viewBox="0 0 48 48" style="enable-background:new 0 0 48 48;" xml:space="preserve">
<style type="text/css">
	.st0{fill:#FFFFFF;}
	.st1{fill:#FFFFFF;fill-opacity:0;}
</style>
<g>
	<path class="st0" d="M30.54541,19.68066c1.07764,0,1.95459-0.87695,1.95459-1.95459s-0.87695-1.95459-1.95459-1.95459
		c-0.58276,0-1.10059,0.26172-1.45923,0.66748l-3.17261-1.58643c0.02661-0.12891,0.04102-0.26172,0.04102-0.39795
		C25.95459,13.37695,25.07764,12.5,24,12.5s-1.95459,0.87695-1.95459,1.95459c0,0.13623,0.0144,0.26904,0.04102,0.39795
		l-3.20068,1.6001c-0.35742-0.38672-0.86426-0.6333-1.43115-0.6333c-1.07764,0-1.95459,0.87695-1.95459,1.95459
		s0.87695,1.95459,1.95459,1.95459c0.22998,0,0.44775-0.04736,0.65308-0.12061L19.03516,21l0,0l0,0l-0.95361,1.43066
		c-0.198-0.06787-0.40649-0.1123-0.62695-0.1123c-1.07764,0-1.95459,0.87646-1.95459,1.9541
		c0,1.07812,0.87695,1.95508,1.95459,1.95508c0.58203,0,1.09985-0.26123,1.45825-0.6665l3.17383,1.58643
		c-0.02686,0.12842-0.04126,0.26172-0.04126,0.39795C22.04541,28.62305,22.92236,29.5,24,29.5s1.95459-0.87695,1.95459-1.95459
		c0-0.13623-0.0144-0.26953-0.04126-0.39795l3.17383-1.58643c0.3584,0.40527,0.87622,0.6665,1.45825,0.6665
		c1.07764,0,1.95459-0.87695,1.95459-1.95508c0-1.07764-0.87695-1.9541-1.95459-1.9541c-0.22046,0-0.42896,0.04443-0.62695,0.1123
		L28.96484,21l0,0l0,0l0.95435-1.43164C30.11694,19.63574,30.3252,19.68066,30.54541,19.68066z M23.23682,21.54346
		c-0.03516-0.04883-0.0752-0.09375-0.10059-0.14893l-0.01831-0.03662C23.07275,21.24707,23.04541,21.12695,23.04541,21
		c0-0.52637,0.42822-0.95459,0.95459-0.95459S24.95459,20.47363,24.95459,21c0,0.12695-0.02734,0.24707-0.07251,0.35791
		l-0.01782,0.03564c-0.0271,0.05908-0.06934,0.10742-0.10742,0.15918C24.3916,22.02881,23.59717,22.02588,23.23682,21.54346z
		 M24.62695,16.29688l1.91553,2.87305l-1.08423,0.54199c-0.25122-0.28418-0.5813-0.49316-0.95825-0.59375v-2.78223
		C24.54297,16.32471,24.58496,16.31104,24.62695,16.29688z M23.5,19.11816c-0.37695,0.10059-0.70703,0.30957-0.95825,0.59375
		l-1.08423-0.54199l1.91553-2.87305c0.04199,0.01416,0.08398,0.02783,0.12695,0.03906C23.5,16.33593,23.5,19.11816,23.5,19.11816z
		 M20.89844,21.9917L20.2373,21l0.66113-0.9917l1.18799,0.59375C22.05981,20.73096,22.04541,20.86377,22.04541,21
		s0.0144,0.26904,0.04102,0.39746l-0.8689,0.43506L20.89844,21.9917z M25.91357,21.39746
		c0.02661-0.12842,0.04102-0.26123,0.04102-0.39746s-0.0144-0.26904-0.04102-0.39795l1.18799-0.59375L27.7627,21l-0.66113,0.9917
		l-0.31909-0.15967L25.91357,21.39746z M21.45728,22.83008l0.1792-0.08936l0.90112-0.45068
		c0.00659,0.00781,0.01514,0.0127,0.02173,0.01953c0.24927,0.27393,0.57275,0.47412,0.94067,0.57227v2.78223
		c-0.02344,0.00586-0.04565,0.01416-0.0686,0.021c-0.02075,0.00635-0.04321,0.00391-0.06372,0.01074l-0.50293-0.75439
		L21.45728,22.83008z M24.63232,25.6958c-0.02051-0.00684-0.04297-0.00439-0.06372-0.01074
		c-0.02295-0.00684-0.04517-0.01514-0.0686-0.021v-2.78223c0.36768-0.09814,0.69116-0.29785,0.94019-0.57178
		c0.00684-0.00732,0.01538-0.01221,0.02222-0.01953l0.72144,0.36035l0.35889,0.1792l-1.40747,2.11133L24.63232,25.6958z
		 M30.54541,16.77148c0.52637,0,0.95459,0.42822,0.95459,0.95459s-0.42822,0.95459-0.95459,0.95459
		s-0.95459-0.42822-0.95459-0.95459S30.01904,16.77148,30.54541,16.77148z M28.63232,18.125l-1.18799,0.59375l-1.98389-2.97461
		l3.17114,1.58545c-0.02661,0.12793-0.04077,0.26074-0.04077,0.39648C28.59082,17.86279,28.60547,17.99609,28.63232,18.125z
		 M24,13.5c0.52637,0,0.95459,0.42822,0.95459,0.95459S24.52637,15.40918,24,15.40918s-0.95459-0.42822-0.95459-0.95459
		S23.47363,13.5,24,13.5z M22.53955,15.74414l-1.98389,2.97461l-1.18213-0.59082c0.021-0.11523,0.03564-0.23291,0.03564-0.354
		c0-0.15088-0.021-0.29639-0.05371-0.43799L22.53955,15.74414z M16.5,17.77393c0-0.52637,0.42822-0.95459,0.95459-0.95459
		s0.95459,0.42822,0.95459,0.95459s-0.42822,0.95459-0.95459,0.95459S16.5,18.30029,16.5,17.77393z M18.93115,19.04004
		c0.00293-0.00342,0.00586-0.00732,0.00903-0.01074l0.61914,0.30957l0.43726,0.21875l0,0l0,0l-0.36035,0.54102L18.93115,19.04004z
		 M19.63623,21.90137l0.3606,0.54102l-1.08228,0.54102L19.63623,21.90137z M16.5,24.27246c0-0.52637,0.42822-0.9541,0.95459-0.9541
		c0.37671,0,0.69629,0.22412,0.85156,0.5415c0.06641,0.13623,0.10278,0.2749,0.10303,0.41211c0,0.00049,0,0.00049,0,0.00049
		c0,0.13818-0.03638,0.27734-0.10352,0.41309c-0.15503,0.31787-0.47461,0.54199-0.85107,0.54199
		C16.92822,25.22754,16.5,24.79883,16.5,24.27246z M19.40918,24.27246L19.40918,24.27246c0-0.00049-0.00024-0.00146-0.00024-0.00195
		c-0.00024-0.13574-0.0144-0.26758-0.04077-0.39551l1.1875-0.59375l1.98193,2.97266c0,0-0.00049,0.00049-0.00049,0.00098
		l-3.16919-1.58398C19.39453,24.54199,19.40918,24.40918,19.40918,24.27246L19.40918,24.27246z M24,28.5
		c-0.52637,0-0.95459-0.42822-0.95459-0.95459c0-0.12695,0.02734-0.24707,0.07251-0.35791l0.01831-0.03613
		c0.04321-0.09473,0.10181-0.18018,0.17212-0.25537c0.01978-0.02148,0.04321-0.0376,0.06445-0.05713
		c0.06006-0.05322,0.12744-0.09766,0.19971-0.13477c0.03345-0.0166,0.06616-0.03467,0.10107-0.04688
		c0.08691-0.03223,0.17969-0.05078,0.27637-0.05615c0.03369-0.00146,0.06641-0.00146,0.1001,0
		c0.09668,0.00537,0.18945,0.02393,0.27637,0.05615c0.03491,0.01221,0.06763,0.03027,0.10107,0.04688
		c0.07227,0.03711,0.13965,0.08154,0.19971,0.13477c0.02124,0.01953,0.04468,0.03564,0.06445,0.05713
		c0.07031,0.0752,0.12891,0.16064,0.17212,0.25537l0.01831,0.03613c0.04517,0.11084,0.07251,0.23096,0.07251,0.35791
		C24.95459,28.07178,24.52637,28.5,24,28.5z M25.46289,26.25488c0-0.00049-0.00049-0.00098-0.00049-0.00098l1.98193-2.97266
		l1.18774,0.59375c-0.02661,0.12744-0.04077,0.25977-0.04102,0.39551c0,0.00049-0.00024,0.00146-0.00024,0.00195l0,0l0,0
		c0,0.13672,0.01465,0.26953,0.04126,0.39844L25.46289,26.25488z M31.5,24.27246c0,0.52637-0.42822,0.95508-0.95459,0.95508
		c-0.37646,0-0.69604-0.22412-0.85107-0.54199c-0.06714-0.13574-0.10352-0.2749-0.10352-0.41309c0,0,0,0,0-0.00049
		c0.00024-0.1377,0.03638-0.27637,0.10352-0.4126c0.15527-0.31738,0.47461-0.54102,0.85107-0.54102
		C31.07178,23.31836,31.5,23.74609,31.5,24.27246z M29.08545,22.9834l-1.08228-0.54102l0.3606-0.54102L29.08545,22.9834z
		 M28.00342,19.55762L28.00342,19.55762L28.00342,19.55762l0.43726-0.21875l0.64429-0.32227l-0.72119,1.08203L28.00342,19.55762z"/>
	<path class="st0" d="M10.5,30.16309v4.13574L24,41.56787l13.5-7.26904v-4.13574L24,37.43213L10.5,30.16309z M36.5,33.70117
		L24,40.43213l-12.5-6.73096v-1.86426L24,38.56787l12.5-6.73096V33.70117z"/>
	<path class="st0" d="M24.03223,5.43213L10.5,12.70117v16.59766L24,36.56787l13.5-7.26904V12.70166L24.03223,5.43213z
		 M24.5,35.16309V31.5h-1v3.66309l-12-6.46191V13.854l2.25,1.29883l0.5-0.86572l-2.21191-1.27734l11.99316-6.44189l11.93262,6.44092
		L33.75,14.28711l0.5,0.86572L36.5,13.854v14.84717L24.5,35.16309z"/>
</g>
<rect class="st1" width="48" height="48"/>
</svg>
