<?xml version="1.0" encoding="utf-8"?>
<!-- Generator: Adobe Illustrator 27.1.1, SVG Export Plug-In . SVG Version: 6.00 Build 0)  -->
<svg version="1.1" id="Note" xmlns="http://www.w3.org/2000/svg" xmlns:xlink="http://www.w3.org/1999/xlink" x="0px" y="0px"
	 viewBox="0 0 48 48" style="enable-background:new 0 0 48 48;" xml:space="preserve">
<style type="text/css">
	.st0{fill:#FFFFFF;}
	.st1{fill:#FFFFFF;fill-opacity:0;}
</style>
<path class="st0" d="M33.5,22.5v-5.94922C33.5,11.00879,29.23828,6.5,24,6.5s-9.5,4.50879-9.5,10.05078V22.5h-3V35l1.72412,6.5
	h21.55176l1.70703-6.37061L36.5,22.5H33.5z M15.5,16.55078C15.5,11.56006,19.31299,7.5,24,7.5s8.5,4.06006,8.5,9.05078V22.5h-1
	v-5.94922C31.5,12.11133,28.13574,8.5,24,8.5s-7.5,3.61133-7.5,8.05078V22.5h-1V16.55078z M30.5,22.5h-13v-5.94922
	C17.5,12.66308,20.41602,9.5,24,9.5s6.5,3.16309,6.5,7.05078V22.5z M35.5,34.93408L34.0083,40.5H13.9917L12.5,34.93408V23.5h23
	V34.93408z M26.5,30c0-1.37842-1.12158-2.5-2.5-2.5s-2.5,1.12158-2.5,2.5c0,0.8252,0.39746,1.57373,1.05957,2.03711L21.62402,35.5
	h4.74951l-0.92285-3.47119C26.10644,31.56445,26.5,30.81836,26.5,30z M24.65186,31.34375l-0.37012,0.17969L25.07276,34.5h-2.14307
	l0.80322-2.97217l-0.37549-0.17969C22.82861,31.0957,22.5,30.5791,22.5,30c0-0.82715,0.67285-1.5,1.5-1.5s1.5,0.67285,1.5,1.5
	C25.5,30.57373,25.1748,31.08838,24.65186,31.34375z"/>
<rect class="st1" width="48" height="48"/>
</svg>
