<?xml version="1.0" encoding="utf-8"?>
<!-- Generator: Adobe Illustrator 27.1.1, SVG Export Plug-In . SVG Version: 6.00 Build 0)  -->
<svg version="1.1" id="Art_3.0" xmlns="http://www.w3.org/2000/svg" xmlns:xlink="http://www.w3.org/1999/xlink" x="0px" y="0px"
	 viewBox="0 0 48 48" style="enable-background:new 0 0 48 48;" xml:space="preserve">
<style type="text/css">
	.st0{fill:#FFFFFF;}
	.st1{fill:#FFFFFF;fill-opacity:0;}
</style>
<path class="st0" d="M43.5,36.5h-1.83209l-4.01636-15H38.5v-1h-2v-1h1v-1h-3v1h1v1h-2v1h0.84827l-4.01904,15h-3.87354l-1.0719-4
	H24.5V21.45996c0.1709-0.03467,0.33466-0.08789,0.49103-0.15576l6.4035,3.69678l0.48047-1.89502
	c0.16943-0.67529-0.13672-1.38281-0.73779-1.71729l-4.66309-2.69238c-0.08594-0.68799-0.44598-1.28662-0.97412-1.68506V9.5957
	l-1.88184,0.53125c-0.66895,0.19092-1.12891,0.81006-1.11816,1.49756v5.38672c-0.52814,0.39844-0.88818,0.99707-0.97412,1.68506
	l-6.42041,3.70703l1.40137,1.36328c0.29541,0.28711,0.68408,0.43506,1.07471,0.43506c0.26953,0,0.54004-0.0708,0.78125-0.21533
	l4.64618-2.68213c0.15637,0.06787,0.32013,0.12109,0.49103,0.15576V32.5h-0.88379l-1.0719,4H15.501v-0.98926h1.88379l1.87256-7
	H8.22219l-1.87256,7H8.501V36.5H4.50002v1h31v0.01074h1V37.5h7v-1L43.5,36.5z M30.90527,22.86133L30.75,23.47461l-4.8808-2.81787
	c0.22137-0.25049,0.39032-0.54346,0.49811-0.86719l4.27673,2.46924C30.85742,22.37744,30.96484,22.62549,30.90527,22.86133z
	 M23.5,11.6167c-0.00391-0.24365,0.15771-0.46094,0.39111-0.52734L24.5,10.917v5.63379c-0.16162-0.0332-0.3288-0.05078-0.5-0.05078
	s-0.33838,0.01758-0.5,0.05078C23.5,16.55079,23.5,11.61671,23.5,11.6167z M24,17.5c0.83008,0,1.50537,0.67529,1.50537,1.50537
	S24.83008,20.51074,24,20.51074s-1.50537-0.67529-1.50537-1.50537S23.16992,17.5,24,17.5z M17.85596,23.12451
	C17.646,23.25,17.37793,23.21875,17.20362,23.0498l-0.45361-0.44141l4.88269-2.81885
	c0.10773,0.32373,0.27673,0.6167,0.49811,0.86719l-4.27484,2.46777L17.85596,23.12451z M14.50098,35.51074V36.5h-5v-0.98926
	H14.50098z M12.64875,34.51074l0.53595-2h3.96576l-0.53595,2C16.61451,34.51074,12.64875,34.51074,12.64875,34.51074z
	 M17.41846,31.51074h-3.96582l0.53595-2h3.96582L17.41846,31.51074z M12.95343,29.51074l-0.53595,2H8.45477l0.53497-2
	C8.98974,29.51074,12.95342,29.51074,12.95343,29.51074z M8.18732,32.51074h3.96216l-0.53595,2H7.65235
	C7.65235,34.51074,8.18732,32.51074,8.18732,32.51074z M22.58008,36.5l0.80371-3h1.23242l0.80371,3H22.58008z M35.5,28.82471
	l-1.51947-0.89014L35.5,26.63623V28.82471z M36.5,26.63282l1.51715,1.30029L36.5,28.82032V26.63282z M36.5,30.57032l2.42889,1.42334
	L36.5,33.30811V30.57032z M35.5,33.30177l-2.42896-1.31787L35.5,30.56349V33.30177z M36.98517,29.69532l1.57837-0.92285
	l0.58691,2.19141C39.15045,30.96388,36.98517,29.69533,36.98517,29.69532z M36.77216,25.54932l0.75555-0.64551l0.4494,1.67822
	C37.97711,26.58204,36.77215,25.54933,36.77216,25.54932z M34.02137,26.58448l0.45239-1.68848l0.76062,0.65234l-1.21301,1.03613
	V26.58448z M33.4347,28.77393l1.57068,0.92041l-2.15497,1.25977L33.4347,28.77393z M32.37147,32.7417l2.58435,1.40234
	l-3.46228,1.87402l0.87793-3.27637V32.7417z M39.62904,32.75147l0.87439,3.26514l-3.44928-1.87158l2.57489-1.39355V32.75147z
	 M36.61622,21.50001l0.62494,2.33398l-0.74115,0.63281V21.5C36.50001,21.5,36.61622,21.5,36.61622,21.50001z M35.50001,21.50001
	v2.95898l-0.73932-0.63379L35.3838,21.5C35.3838,21.5,35.50001,21.5,35.50001,21.50001z M32.70344,36.50001l2.79657-1.51367v1.51367
	C35.50001,36.50002,32.70344,36.50002,32.70344,36.50001z M36.50001,34.98194l2.79785,1.51807h-2.79785V34.98194z"/>
<rect class="st1" width="48" height="48"/>
</svg>
